HIERARCHY
ROOT root
{
	OFFSET 0.000000 0.000000 0.000000
	CHANNELS 6 Xposition Yposition Zposition Zrotation Yrotation Xrotation
	JOINT lhip
	{
		OFFSET 0.058581 -0.082280 -0.017664
		CHANNELS 3 Zrotation Yrotation Xrotation
		JOINT lknee
		{
			OFFSET 0.043451 -0.386469 0.008037
			CHANNELS 3 Zrotation Yrotation Xrotation
			JOINT lankle
			{
				OFFSET -0.014790 -0.426874 -0.037428
				CHANNELS 3 Zrotation Yrotation Xrotation
				JOINT ltoe
				{
					OFFSET 0.041054 -0.060286 0.122042
					CHANNELS 3 Zrotation Yrotation Xrotation
					End Site
					{
						OFFSET 0.000000 0.000000 0.000000
					}
				}
			}
		}
	}
	JOINT rhip
	{
		OFFSET -0.060310 -0.090513 -0.013543
		CHANNELS 3 Zrotation Yrotation Xrotation
		JOINT rknee
		{
			OFFSET -0.043257 -0.383688 -0.004843
			CHANNELS 3 Zrotation Yrotation Xrotation
			JOINT rankle
			{
				OFFSET 0.019056 -0.420046 -0.034562
				CHANNELS 3 Zrotation Yrotation Xrotation
				JOINT rtoe
				{
					OFFSET -0.034840 -0.062106 0.130323
					CHANNELS 3 Zrotation Yrotation Xrotation
					End Site
					{
						OFFSET 0.000000 0.000000 0.000000
					}
				}
			}
		}
	}
	JOINT lowerback
	{
		OFFSET 0.004439 0.124404 -0.038385
		CHANNELS 3 Zrotation Yrotation Xrotation
		JOINT upperback
		{
			OFFSET 0.004488 0.137956 0.026820
			CHANNELS 3 Zrotation Yrotation Xrotation
			JOINT chest
			{
				OFFSET -0.002265 0.056032 0.002855
				CHANNELS 3 Zrotation Yrotation Xrotation
				JOINT lowerneck
				{
					OFFSET -0.013390 0.211636 -0.033468
					CHANNELS 3 Zrotation Yrotation Xrotation
					JOINT upperneck
					{
						OFFSET 0.010113 0.088937 0.050410
						CHANNELS 3 Zrotation Yrotation Xrotation
						End Site
						{
							OFFSET 0.000000 0.000000 0.000000
						}
					}
				}
				JOINT lclavicle
				{
					OFFSET 0.071702 0.114000 -0.018898
					CHANNELS 3 Zrotation Yrotation Xrotation
					JOINT lshoulder
					{
						OFFSET 0.122921 0.045205 -0.019046
						CHANNELS 3 Zrotation Yrotation Xrotation
						JOINT lelbow
						{
							OFFSET 0.255332 -0.015649 -0.022946
							CHANNELS 3 Zrotation Yrotation Xrotation
							JOINT lwrist
							{
								OFFSET 0.265709 0.012698 -0.007375
								CHANNELS 3 Zrotation Yrotation Xrotation
								End Site
								{
									OFFSET 0.000000 0.000000 0.000000
								}
							}
						}
					}
				}
				JOINT rclavicle
				{
					OFFSET -0.082954 0.112472 -0.023707
					CHANNELS 3 Zrotation Yrotation Xrotation
					JOINT rshoulder
					{
						OFFSET -0.113228 0.046853 -0.008472
						CHANNELS 3 Zrotation Yrotation Xrotation
						JOINT relbow
						{
							OFFSET -0.260127 -0.014369 -0.031269
							CHANNELS 3 Zrotation Yrotation Xrotation
							JOINT rwrist
							{
								OFFSET -0.269108 0.006794 -0.006027
								CHANNELS 3 Zrotation Yrotation Xrotation
								End Site
								{
									OFFSET 0.000000 0.000000 0.000000
								}
							}
						}
					}
				}
			}
		}
	}
}
MOTION
Frames: 11
Frame Time: 0.033333
-0.978779 0.720750 0.914843 17.296954 0.123475 79.638414 12.669972 3.175976 -14.879802 -8.695519 0.545365 49.450452 1.344665 8.506601 -30.263304 0.000000 -0.000000 0.000000 -14.064015 -8.552967 -16.532292 -2.148031 -6.493810 56.970994 7.315609 -6.645105 -28.143879 0.000000 -0.000000 0.000000 -1.134662 3.011871 27.574424 -0.404763 -1.872987 -1.174592 -1.292699 -0.368542 0.247199 -0.256388 8.825314 -11.057135 -1.539890 -2.281502 11.545149 -26.672937 -17.817423 -2.388371 -40.685603 -25.137032 4.617830 20.801935 -39.621472 -39.314644 28.019588 -0.851155 -35.968369 32.999298 21.023938 3.307195 45.401814 28.011035 12.197997 -24.028039 32.719190 -44.403193 -11.614788 -0.030202 -30.296799 
-0.977919 0.717561 0.907143 17.210142 0.203850 78.883126 12.828270 3.267078 -14.773386 -8.432615 0.737700 51.438554 1.392293 8.420957 -31.459625 0.000000 -0.000000 0.000000 -14.460385 -8.252890 -16.397065 -2.255622 -6.654604 58.956680 7.253060 -6.256109 -29.069569 0.000000 -0.000000 0.000000 -1.104240 2.915651 27.997867 -0.710388 -1.681405 -0.877581 -1.511389 -0.178808 0.171990 -0.249080 8.468424 -11.080696 -1.507030 -2.322755 11.049467 -26.965231 -18.964836 -2.525537 -42.873632 -26.975946 5.132540 22.410772 -38.231258 -40.279294 28.876948 1.552235 -36.501332 33.219286 22.578075 3.371647 46.720525 30.218541 11.952173 -23.665175 29.415245 -45.271547 -12.486942 -1.049863 -31.069733 
-0.977869 0.713508 0.901028 17.024554 0.362176 78.343573 13.179802 2.959621 -14.676158 -8.327788 1.037876 52.968323 1.307199 8.481786 -32.502707 0.000000 -0.000000 0.000000 -14.428755 -8.023790 -16.310174 -2.622873 -6.743325 60.362831 6.779686 -6.150803 -30.229101 0.000000 -0.000000 0.000000 -1.139160 2.824855 28.049184 -0.935823 -1.639131 -0.523817 -1.528728 0.087442 0.036581 0.066893 8.488130 -11.151493 -1.658261 -1.941837 10.994484 -26.829574 -19.780877 -2.464424 -46.180440 -27.965078 5.974621 25.422714 -38.184129 -42.474694 30.254799 2.910742 -35.650476 32.527210 23.816335 3.672923 48.527904 31.904808 11.988503 -23.726513 27.836801 -46.127939 -13.920602 -2.386360 -31.748143 
-0.977874 0.710093 0.896107 16.829557 0.352159 78.435047 13.351609 3.049829 -15.086865 -8.094174 1.466293 54.200272 1.779532 8.343428 -33.243523 0.000000 -0.000000 0.000000 -14.678309 -8.387801 -16.903929 -2.568876 -6.631075 61.722426 6.457157 -5.581710 -30.988307 0.000000 -0.000000 0.000000 -1.149843 2.855147 27.302785 -1.160652 -1.645812 -0.182951 -1.587702 0.027825 -0.005344 -0.162139 8.237302 -11.143487 -1.267143 -1.570911 10.494024 -26.481198 -20.419563 -2.435526 -49.217607 -28.172155 7.310552 28.718385 -39.206628 -44.937871 32.338426 5.727905 -36.227636 32.095293 24.520434 4.305989 49.928463 32.870201 12.298477 -24.469875 28.670338 -46.853229 -14.705279 -3.833834 -33.435513 
-0.977646 0.706648 0.894857 16.661097 0.307754 78.207024 13.357046 2.753828 -14.839671 -7.681003 1.831360 54.655020 1.562166 8.338767 -33.455321 0.000000 -0.000000 0.000000 -14.982777 -8.576179 -16.751164 -2.409553 -6.620950 62.362172 6.491439 -4.893155 -31.112131 0.000000 -0.000000 0.000000 -0.791566 3.037201 27.172104 -1.334628 -1.848762 -0.139616 -1.818760 0.044210 0.123096 -0.143081 8.362074 -11.570990 -1.402652 -1.391622 10.443657 -26.374417 -19.731310 -3.097767 -51.859794 -28.718576 8.712056 30.039162 -41.046113 -46.754447 34.062514 6.974472 -36.647333 31.945071 24.038890 3.356563 51.877147 33.288147 13.550792 -25.061435 30.551668 -48.295593 -15.662008 -4.390985 -33.083668 
-0.978913 0.702788 0.894893 16.215021 0.224608 78.507458 13.751756 2.947423 -14.693748 -7.829047 2.227491 54.472954 1.474283 8.076560 -33.629989 0.000000 -0.000000 0.000000 -15.015497 -8.593652 -16.980779 -2.501949 -6.842014 62.542764 6.435708 -4.138481 -31.899212 0.000000 -0.000000 0.000000 -1.256711 2.881810 26.149388 -1.330425 -1.403659 -0.215504 -1.800346 0.241276 0.331714 0.096368 8.407077 -11.445543 -1.384582 -1.513841 9.763669 -26.205165 -18.912194 -3.357905 -54.233028 -29.133025 9.898595 31.900686 -42.552227 -46.859033 33.513147 8.111271 -37.344141 31.630413 23.206717 3.346223 53.357394 33.383691 14.790359 -26.708864 33.352357 -47.647446 -15.940314 -5.407613 -34.661081 
-0.979564 0.699604 0.898248 16.131296 0.091045 78.670080 13.674134 3.148485 -14.203776 -7.845351 2.108546 53.767260 1.748567 8.022884 -33.524072 0.000000 -0.000000 0.000000 -15.041003 -8.765588 -16.565226 -2.280331 -6.826900 61.746232 6.336304 -4.368774 -31.663776 0.000000 -0.000000 0.000000 -1.253940 2.942822 25.161468 -1.376946 -1.465325 0.058766 -1.839072 0.131282 0.294012 0.045608 7.875809 -11.270430 -1.230488 -1.603437 9.015152 -26.482035 -18.410550 -3.172626 -54.439816 -28.912097 10.431181 32.797265 -45.316980 -47.246833 34.550873 9.034905 -37.381158 31.144963 22.790561 3.175294 53.724849 32.744532 15.696413 -27.318997 36.767853 -48.627821 -17.751606 -6.084764 -35.253209 
-0.979754 0.696952 0.903438 16.336830 -0.111678 78.799804 13.229268 2.792639 -13.565707 -7.774580 1.893284 52.398040 1.618644 8.350441 -33.085777 0.000000 -0.000000 0.000000 -15.132399 -9.018600 -15.844548 -2.417655 -6.955860 60.403684 6.350092 -4.317115 -31.522682 0.000000 -0.000000 0.000000 -1.102747 3.012300 24.483756 -1.527451 -2.051237 0.087935 -1.967474 -0.048774 0.351761 0.160175 7.684085 -11.265319 -0.930646 -1.581331 8.048353 -25.824366 -17.803194 -3.485151 -55.147531 -28.641064 11.212008 34.406015 -47.682185 -47.992558 34.549111 9.766580 -37.493567 30.426732 22.219165 2.223346 54.155485 31.907138 16.866795 -27.321886 40.128115 -48.014902 -18.084395 -6.845441 -36.161083 
-0.981616 0.694845 0.909581 16.327312 -0.188195 79.490602 13.172728 2.666170 -13.438043 -7.798845 1.840993 50.847871 1.188237 8.536485 -32.252988 0.000000 -0.000000 0.000000 -14.699430 -8.725933 -15.847267 -2.649373 -7.214752 59.068652 6.098170 -4.550934 -30.697852 0.000000 -0.000000 0.000000 -1.392355 2.586560 23.165847 -1.542143 -1.831817 -0.260985 -1.832165 -0.136650 0.467742 0.096277 7.490899 -11.062011 -0.610633 -1.455117 7.254245 -25.349564 -16.928497 -4.020220 -54.912621 -28.615547 11.728325 34.557842 -49.541249 -48.507925 35.107657 9.664263 -37.876363 29.371311 21.344748 1.447135 54.168463 31.237362 17.879048 -26.649489 43.071905 -46.881536 -18.421634 -7.215052 -37.152521 
-0.982464 0.693142 0.917091 16.288317 -0.369001 79.783729 12.762147 2.653843 -12.665857 -7.535295 1.462877 48.939125 1.288881 8.663094 -31.487479 0.000000 -0.000000 0.000000 -14.533520 -8.860277 -15.182977 -2.524508 -7.085781 57.259222 6.342240 -4.685147 -29.908911 0.000000 -0.000000 0.000000 -1.338891 2.590819 22.318053 -1.601468 -1.936827 -0.575990 -1.803029 -0.310739 0.758889 0.060749 6.946880 -11.357556 -0.448135 -1.518302 6.592781 -24.130785 -16.273783 -4.618488 -55.040288 -28.777227 12.040498 35.089979 -51.405220 -49.162688 35.464837 10.058120 -37.730450 27.983544 20.839284 0.601417 53.880202 30.682616 18.641176 -26.643026 45.757442 -46.970685 -19.424592 -7.900556 -37.131904 
-0.984511 0.691845 0.925600 15.824076 -0.541349 80.224504 12.431781 2.671358 -11.641666 -7.299747 1.105648 46.416996 1.280495 9.120375 -30.437354 0.000000 -0.000000 0.000000 -14.005911 -8.575868 -14.834970 -2.483914 -6.739652 55.153278 6.323442 -4.867871 -28.908377 0.000000 -0.000000 0.000000 -1.614842 2.574621 21.276771 -1.586780 -1.762864 -0.694276 -1.456329 -0.221485 0.784879 -0.088521 6.721591 -11.542720 -0.388620 -1.533713 5.989073 -22.983552 -15.583083 -5.396951 -55.151128 -29.069834 12.085447 35.017434 -52.791989 -48.971386 35.529435 10.324924 -37.600923 26.325821 20.286226 -0.177277 53.579124 30.466883 19.127581 -26.369975 48.097516 -46.153367 -19.294123 -8.324283 -37.876492 
